<?xml version="1.0" standalone="no"?>
<!DOCTYPE svg PUBLIC "-//W3C//DTD SVG 20010904//EN"
 "http://www.w3.org/TR/2001/REC-SVG-20010904/DTD/svg10.dtd">
<svg version="1.0" xmlns="http://www.w3.org/2000/svg"
 width="470.000000pt" height="470.000000pt" viewBox="0 0 470.000000 470.000000"
 preserveAspectRatio="xMidYMid meet">
<metadata>
Created by potrace 1.15, written by Peter Selinger 2001-2017
</metadata>
<g transform="translate(0.000000,470.000000) scale(0.100000,-0.100000)"
fill="#000000" stroke="none">
<path d="M4085 2751 c-28 -6 -29 -8 -26 -51 2 -39 1 -43 -13 -31 -21 17 -70 6
-62 -14 10 -26 -12 -26 -32 0 -12 15 -23 21 -27 15 -8 -12 58 -105 81 -114 27
-10 134 -7 134 4 0 7 6 7 18 2 9 -5 50 -12 90 -15 l73 -6 -6 31 c-6 23 -4 29
6 23 9 -6 11 -3 6 9 -4 10 -7 22 -7 27 0 5 -7 9 -16 9 -8 0 -12 5 -9 11 4 6
13 8 20 5 20 -7 27 31 16 85 0 4 -44 7 -97 8 -52 1 -100 3 -107 5 -7 2 -25 1
-42 -3z"/>
<path d="M4490 2750 c0 -5 5 -10 11 -10 5 0 7 -4 4 -10 -3 -5 -2 -10 4 -10 5
0 11 6 14 13 4 11 17 -12 31 -55 4 -15 17 -18 76 -18 72 0 80 5 58 40 -10 15
-10 22 0 32 6 6 12 14 12 18 0 3 -47 6 -105 8 -68 2 -105 -1 -105 -8z"/>
<path d="M3558 2602 c41 -12 18 -26 -40 -25 -32 1 -60 -2 -63 -8 -8 -13 -45
-11 -45 2 0 6 8 8 19 4 11 -3 21 0 24 8 4 10 -7 13 -44 14 -27 0 -49 -3 -49
-8 0 -5 -7 -9 -17 -9 -15 0 -15 -2 1 -19 10 -11 15 -24 11 -30 -6 -10 35 -9
125 6 19 3 70 5 112 5 74 -1 77 0 68 19 -6 11 -22 19 -38 20 l-27 1 25 8 c30
10 29 10 -35 15 -27 2 -40 0 -27 -3z"/>
<path d="M27 2572 c-15 -2 -27 -9 -27 -17 0 -11 7 -12 32 -4 42 12 61 11 53
-1 -3 -5 2 -9 12 -8 10 0 29 0 43 -1 24 -2 24 -2 -7 -16 -18 -8 -33 -20 -33
-27 0 -9 -3 -9 -11 -1 -7 7 -25 9 -40 6 -20 -4 -29 -1 -29 7 0 21 -14 1 -17
-24 -4 -30 26 -44 44 -21 11 16 39 12 29 -3 -2 -4 2 -16 9 -26 14 -18 73 -35
128 -36 24 0 27 3 22 23 -4 15 -1 28 9 36 9 8 16 23 16 35 0 12 9 27 20 34 19
12 28 41 13 43 -5 0 -35 2 -68 4 -44 4 -55 2 -40 -5 15 -8 10 -9 -21 -4 -61 8
-106 10 -137 6z"/>
<path d="M1570 2500 c0 -44 -3 -53 -20 -57 -15 -4 -18 -9 -10 -18 11 -13 -15
-25 -55 -24 -15 0 -13 3 10 14 17 7 24 14 17 14 -9 1 -12 14 -10 43 3 35 0 41
-17 43 -11 1 -44 6 -72 10 -34 5 -53 4 -53 -3 0 -5 10 -12 22 -15 12 -4 19 -9
15 -13 -4 -4 -2 -13 4 -21 10 -11 -7 -12 -97 -7 -59 3 -118 10 -131 15 -13 5
-25 4 -28 -1 -10 -16 -25 -11 -19 5 7 16 -12 19 -63 9 -22 -4 -33 -15 -43 -40
-8 -19 -21 -34 -30 -34 -9 0 -21 -5 -27 -11 -7 -7 -12 -6 -16 5 -4 9 -2 16 4
16 6 0 7 6 2 12 -4 7 -7 22 -8 33 0 16 -7 20 -36 21 -33 2 -35 1 -31 -27 2
-16 -1 -36 -8 -44 -9 -10 -9 -15 -1 -15 6 0 11 -4 11 -9 0 -15 -51 -23 -165
-23 -60 -1 -124 -5 -141 -10 -17 -4 -51 -4 -77 1 -30 5 -47 5 -47 -1 0 -6 -17
-8 -42 -4 -24 4 -79 8 -123 10 -44 3 -106 7 -137 11 -39 4 -63 2 -77 -7 -18
-11 -23 -10 -36 7 -13 17 -16 18 -25 5 -14 -22 -12 -27 11 -26 12 1 24 -5 26
-11 3 -8 -5 -13 -21 -13 -29 0 -37 -30 -8 -31 14 0 14 -2 -3 -8 -17 -7 -14 -9
15 -13 19 -3 39 -2 45 3 12 12 55 11 55 -1 0 -5 23 -10 51 -10 28 0 59 -5 69
-10 14 -7 25 -7 38 1 12 8 30 9 48 4 16 -4 39 -7 52 -6 12 1 22 -2 22 -8 0 -6
5 -11 11 -11 5 0 7 5 4 10 -3 6 1 10 10 10 9 0 14 -4 11 -9 -3 -5 8 -11 24
-13 20 -3 30 0 30 9 0 16 36 18 46 2 3 -6 15 -9 25 -6 11 3 17 1 13 -4 -3 -5
2 -9 11 -9 9 0 13 4 10 10 -5 8 67 7 185 -3 19 -2 51 0 70 4 19 4 39 4 45 -1
5 -4 91 -6 190 -3 247 6 287 4 306 -13 18 -16 43 -19 34 -4 -9 15 6 12 19 -4
18 -23 65 -29 73 -10 6 15 7 15 20 -2 7 -10 13 -25 13 -33 0 -8 18 -31 39 -52
36 -32 47 -37 111 -43 40 -4 100 -4 135 -1 61 7 165 -8 165 -23 0 -6 -98 -9
-110 -3 -16 8 -80 5 -109 -5 -43 -15 -28 -24 32 -19 71 6 112 -4 123 -28 8
-19 16 -22 59 -19 28 1 55 8 60 15 6 7 20 13 33 14 18 2 22 -2 17 -18 -5 -14
-2 -19 12 -20 15 0 15 -2 -3 -9 -12 -5 -25 -13 -29 -19 -3 -6 -18 -10 -33 -10
-21 1 -22 2 -7 6 35 9 35 18 -1 18 -23 0 -33 -4 -29 -12 2 -8 -4 -13 -15 -13
-24 0 -37 20 -13 21 10 0 13 3 6 5 -6 3 -24 -3 -39 -13 -20 -13 -29 -14 -32
-5 -2 6 -18 12 -35 11 -18 0 -25 -3 -17 -6 8 -3 18 -12 23 -19 4 -7 23 -16 42
-20 19 -3 32 -10 29 -15 -3 -5 -2 -9 3 -8 4 1 15 -1 23 -4 41 -18 173 -57 177
-53 7 6 -63 35 -101 42 -17 3 -35 10 -41 15 -14 14 66 1 195 -31 34 -8 144
-29 185 -35 11 -1 58 -10 104 -19 93 -18 216 -22 191 -6 -8 5 -46 10 -85 10
-38 1 -90 5 -115 9 -136 25 -217 45 -231 58 -11 9 -18 10 -20 4 -3 -7 -22 -4
-54 9 -42 16 -53 26 -22 21 76 -13 77 -13 77 7 0 25 -27 36 -38 15 -6 -11 -11
-12 -16 -4 -4 6 -17 11 -30 11 -13 0 -23 6 -23 15 0 8 4 12 9 9 4 -3 8 -1 8 5
0 5 -7 14 -16 19 -19 11 -26 98 -8 112 14 12 37 -13 52 -55 6 -16 11 -25 11
-18 1 14 41 5 41 -9 0 -6 -7 -8 -15 -4 -9 3 -15 0 -15 -9 0 -22 15 -26 49 -14
22 8 35 8 44 0 10 -8 148 -19 305 -24 6 0 12 -4 12 -9 0 -7 -14 -12 -31 -10
-3 1 -48 4 -99 7 -52 4 -97 7 -100 7 -20 2 -30 -4 -24 -13 3 -6 0 -15 -7 -20
-11 -6 -11 -11 -2 -20 15 -15 104 -23 112 -10 10 16 111 26 111 11 0 -9 -10
-11 -32 -6 -30 6 -31 5 -13 -7 23 -16 75 -28 75 -17 0 5 13 12 28 18 35 12 79
-7 60 -26 -8 -8 -5 -14 17 -22 16 -6 38 -10 49 -9 43 5 196 -56 196 -78 0 -16
-37 -18 -42 -2 -2 7 -34 22 -71 34 -42 13 -62 17 -56 8 6 -7 19 -15 30 -18 35
-11 20 -23 -26 -20 -25 1 -42 -1 -39 -6 5 -9 -61 -13 -164 -10 -29 0 -86 8
-125 16 -64 14 -150 28 -244 41 -31 4 -32 3 -23 -21 6 -16 6 -25 0 -25 -6 0
-10 7 -10 15 0 11 -7 14 -24 9 -19 -4 -26 -1 -31 15 -3 12 -11 19 -16 16 -5
-4 -16 0 -24 8 -9 9 -47 17 -102 22 -48 4 -107 10 -130 15 -28 5 -44 4 -48 -4
-3 -8 -7 -7 -11 2 -5 10 -9 10 -20 1 -10 -8 -14 -8 -15 0 -1 6 -2 16 -3 22 0
7 -26 13 -63 15 -33 1 -89 8 -122 14 -63 11 -86 7 -78 -14 12 -30 -11 -41 -80
-39 -81 3 -100 -5 -83 -36 7 -14 20 -22 33 -21 50 4 73 -1 85 -21 16 -25 8
-37 -13 -19 -9 8 -27 10 -47 6 -71 -15 -105 -17 -143 -8 -43 10 -38 14 35 29
l45 10 -49 8 c-33 5 -55 4 -68 -4 -10 -6 -18 -7 -18 -2 0 16 -36 22 -64 12
-14 -6 -26 -17 -26 -26 0 -8 -7 -15 -16 -15 -8 0 -12 5 -9 10 3 6 -1 10 -9 10
-9 0 -16 -7 -16 -15 0 -12 -5 -13 -17 -7 -10 5 -45 6 -78 2 -33 -4 -108 -7
-167 -6 -80 1 -108 -2 -108 -11 0 -13 -21 -20 -82 -25 -29 -3 -38 0 -41 14 -3
10 -1 21 4 24 14 8 10 24 -6 24 -9 0 -21 -11 -27 -25 -11 -25 -23 -31 -31 -17
-7 10 -127 2 -127 -9 0 -5 9 -9 19 -9 11 0 22 -4 25 -9 3 -5 32 -7 63 -4 43 4
55 2 47 -6 -6 -6 -24 -13 -41 -14 -17 -1 -29 -5 -26 -9 2 -5 -12 -8 -31 -8
-35 0 -48 13 -23 24 6 3 -9 4 -35 4 -27 -1 -48 -5 -48 -8 0 -12 34 -37 60 -45
14 -4 31 -13 39 -19 12 -9 14 -8 9 6 -5 11 0 18 14 21 32 9 50 -3 44 -28 -7
-28 14 -38 50 -25 33 13 31 13 37 -9 7 -27 109 -48 152 -32 27 10 32 9 50 -12
24 -29 71 -43 91 -26 11 9 14 8 14 -6 0 -15 -6 -17 -47 -11 -27 3 -60 9 -75
12 -24 5 -28 3 -28 -15 0 -11 6 -21 13 -22 42 -1 112 -13 180 -30 43 -11 87
-17 98 -14 11 4 19 2 19 -5 0 -7 6 -10 14 -7 7 3 30 -6 51 -20 20 -13 39 -22
42 -19 3 3 12 -2 21 -10 11 -12 17 -13 22 -3 6 8 14 6 31 -10 12 -11 29 -21
36 -21 7 0 13 -7 13 -15 0 -9 9 -15 25 -15 14 0 25 -5 25 -11 0 -22 27 -36 85
-43 82 -9 175 -29 170 -35 -1 -3 18 -6 44 -7 25 0 94 -13 153 -28 59 -15 113
-26 120 -25 18 4 95 -10 138 -24 19 -6 45 -10 57 -8 11 1 24 -3 28 -9 4 -6 16
-8 27 -4 11 3 32 1 46 -4 15 -6 56 -13 92 -16 36 -3 99 -10 140 -15 47 -6 79
-6 87 0 7 7 14 6 18 -1 3 -5 13 -10 21 -10 9 0 24 -10 35 -22 10 -13 18 -17
19 -10 0 6 -4 12 -10 12 -5 0 -10 6 -10 14 0 10 10 13 38 10 122 -12 200 -18
223 -16 28 3 55 -20 44 -38 -3 -6 -11 -8 -16 -5 -5 4 -9 1 -9 -4 0 -6 -5 -11
-11 -11 -5 0 -7 5 -3 11 4 7 1 10 -7 7 -8 -3 -12 -12 -10 -19 2 -8 4 -23 6
-34 4 -30 5 -31 14 -16 7 10 11 5 16 -18 4 -19 13 -32 23 -32 28 -2 72 -5 72
-4 0 0 -5 16 -10 35 -11 38 -4 94 11 84 5 -3 9 2 9 10 0 9 7 16 15 16 11 0 13
-8 8 -32 l-6 -31 21 21 c12 12 22 28 23 34 0 7 4 3 9 -9 7 -16 4 -31 -7 -51
-17 -30 -12 -68 8 -57 8 5 8 10 0 18 -14 14 -14 30 -1 22 6 -3 10 1 10 10 0
24 20 7 21 -18 0 -21 1 -21 9 -2 7 17 9 17 9 3 1 -10 6 -18 11 -18 16 0 12 22
-9 44 -27 30 -35 63 -16 63 9 0 15 -9 15 -24 0 -14 6 -23 15 -23 11 0 15 -12
16 -47 0 -33 3 -42 8 -29 5 14 10 16 15 8 4 -7 15 -12 24 -12 14 0 15 2 3 9
-11 7 -12 13 -4 23 6 7 11 17 11 23 0 5 5 11 11 13 6 2 11 -3 11 -12 0 -9 5
-16 10 -16 6 0 10 -7 10 -16 0 -8 4 -13 10 -9 14 8 -9 54 -45 90 -16 16 -29
32 -27 34 2 3 -1 7 -7 9 -19 6 -12 -23 9 -36 23 -14 27 -42 5 -42 -8 0 -15 -6
-15 -14 0 -8 -5 -18 -12 -22 -8 -5 -9 2 -5 24 5 22 3 32 -6 32 -6 0 -20 14
-30 31 -15 27 -22 30 -55 28 -54 -3 -72 0 -72 10 0 6 51 9 123 7 67 -1 128 2
135 7 8 7 12 4 12 -10 0 -11 11 -25 25 -31 35 -16 48 -15 42 3 -7 17 11 31 23
19 13 -13 22 -73 14 -96 -6 -20 -7 -19 -30 7 -13 16 -24 32 -24 37 0 4 -4 8
-10 8 -15 0 -12 -57 3 -63 7 -3 5 -6 -5 -6 -11 -1 -18 -9 -18 -20 0 -25 18
-37 33 -22 8 8 7 11 -3 11 -29 0 1 13 35 15 28 2 35 -2 35 -17 0 -10 4 -18 9
-18 12 0 11 59 -1 66 -5 3 -6 14 -3 24 3 9 1 30 -5 45 -12 30 -4 48 10 25 5
-8 12 -11 16 -8 3 4 -1 14 -10 23 -21 22 -21 22 14 27 18 3 35 -1 42 -9 9 -11
7 -12 -8 -7 -18 5 -18 5 -1 -9 12 -10 17 -22 13 -35 -4 -12 -2 -24 5 -28 9 -5
10 -2 6 9 -4 11 -1 17 8 17 8 0 17 12 21 27 12 56 15 62 36 69 12 4 43 8 68 9
25 1 55 7 66 12 26 14 128 10 147 -5 8 -7 13 -21 10 -32 -6 -22 12 -28 20 -7
3 9 9 9 26 -1 12 -7 21 -8 21 -2 0 22 19 8 29 -21 9 -26 15 -31 36 -27 13 3
26 1 29 -4 2 -5 3 -3 2 4 -2 7 -12 12 -23 11 -10 -1 -24 7 -31 17 -10 17 -10
20 3 20 8 0 15 7 15 16 0 13 -3 14 -14 5 -11 -10 -16 -6 -24 16 l-10 28 -7
-28 c-6 -22 -10 -25 -21 -16 -8 6 -11 16 -7 22 4 6 -2 8 -15 5 -12 -4 -22 -2
-22 2 0 5 -8 11 -17 14 -10 3 -3 4 15 2 17 -1 32 1 32 5 0 10 40 17 135 24 44
3 88 8 98 11 10 3 27 -2 38 -12 11 -10 19 -12 19 -6 0 7 -6 12 -12 13 -31 2
45 17 118 23 43 4 142 16 219 27 179 25 168 23 183 32 7 5 12 3 12 -4 0 -9 4
-8 15 1 12 10 14 85 15 521 0 559 6 509 -55 514 -11 1 -46 3 -77 4 -32 0 -58
5 -58 9 0 5 43 7 95 4 66 -3 95 -1 95 7 0 7 -28 11 -77 12 -102 2 -116 0 -126
-17 -11 -20 -27 -17 -27 4 0 14 -2 15 -10 2 -8 -13 -13 -13 -39 3 -26 15 -31
16 -44 2 -9 -9 -17 -11 -19 -4 -2 5 -12 7 -22 3 -14 -5 -15 -9 -4 -15 10 -7
10 -9 0 -9 -7 0 -15 7 -18 15 -7 17 -94 22 -94 5 0 -7 -6 -7 -20 0 -11 6 -45
13 -77 16 -31 3 -64 9 -73 14 -20 11 -323 4 -407 -9 -34 -5 -70 -7 -81 -5 -10
3 -43 -4 -73 -15 -72 -28 -91 -27 -87 2 3 21 -1 22 -82 27 -57 3 -103 0 -139
-9 -41 -11 -56 -12 -59 -3 -3 9 -9 9 -25 0 -13 -7 -58 -11 -109 -10 -49 0 -88
-3 -88 -7 0 -12 -53 -21 -65 -12 -17 13 -86 12 -103 -1 -12 -10 -16 -10 -19 0
-6 15 -99 17 -108 2 -3 -5 -12 -10 -18 -10 -7 0 -6 4 3 10 12 8 10 10 -10 11
-14 0 -62 3 -107 5 -56 4 -83 2 -83 -5 0 -6 -9 -2 -21 10 -11 11 -24 18 -27
14 -4 -3 0 -10 7 -15 8 -4 11 -15 7 -25 -3 -10 -1 -24 5 -31 10 -12 9 -13 -5
-8 -9 3 -16 10 -16 14 0 5 -13 15 -30 24 -16 8 -30 10 -30 5 0 -5 -7 -9 -15
-9 -8 0 -15 7 -15 16 0 12 -7 15 -25 12 -14 -3 -28 -2 -30 2 -3 5 -15 6 -27 2
-14 -3 -19 -2 -14 6 4 7 31 12 61 12 30 0 57 5 61 11 3 6 20 9 36 7 16 -3 31
-1 34 4 8 12 58 10 71 -3 7 -7 25 -9 50 -4 32 6 35 9 22 18 -13 9 7 12 90 12
125 1 301 15 301 25 0 18 -177 30 -375 26 -115 -3 -239 -5 -274 -5 -56 -1 -62
-3 -50 -17 11 -14 -11 -15 -234 -11 -212 4 -249 2 -268 -11 -17 -11 -24 -12
-27 -4 -5 15 -32 16 -32 1 0 -6 -7 -3 -16 5 -10 11 -15 30 -13 58 2 26 -1 43
-9 46 -8 2 -12 -12 -12 -48z m1273 -998 c10 -9 17 -10 22 -2 3 5 9 10 13 10
15 0 111 -78 104 -85 -4 -3 1 -11 11 -16 21 -12 23 -31 2 -23 -18 7 -20 -7 -3
-24 9 -9 8 -12 -5 -12 -16 0 -72 -49 -64 -56 9 -9 35 8 40 26 6 24 57 24 112
-1 37 -16 38 -18 13 -18 -42 -1 -42 -17 0 -35 21 -10 27 -15 13 -12 -14 3 -45
-4 -70 -15 -40 -17 -46 -18 -53 -4 -5 8 -21 16 -36 16 -17 1 -21 3 -9 6 30 8
8 23 -25 16 -20 -4 -29 -3 -25 4 4 6 -2 13 -13 16 -13 3 -20 0 -20 -9 0 -7 -8
-13 -17 -12 -46 4 -103 -3 -103 -12 0 -6 6 -12 13 -14 6 -2 21 -7 32 -11 19
-7 18 -8 -5 -15 -37 -12 -59 -12 -42 -1 11 6 10 10 -4 15 -11 4 -21 1 -25 -6
-5 -9 -22 -12 -49 -10 -25 3 -37 7 -30 12 24 15 -8 20 -35 6 -23 -12 -24 -15
-8 -19 10 -3 0 -5 -22 -5 -22 0 -49 3 -60 8 -18 8 -17 9 7 9 15 1 29 5 32 9 7
11 -64 33 -77 25 -6 -4 -8 0 -4 10 3 10 2 17 -3 17 -6 0 -10 5 -10 11 0 8 13
10 38 6 20 -3 46 -1 57 4 18 8 17 9 -4 5 -22 -4 -23 -3 -9 10 11 11 21 12 40
5 15 -6 49 -6 82 -2 39 5 62 4 74 -4 26 -18 70 -26 77 -15 3 5 15 10 26 10 10
0 19 5 19 10 0 6 -10 10 -22 10 -19 0 -20 2 -8 10 11 7 7 10 -17 10 -38 0 -53
17 -21 23 13 3 6 4 -14 4 -20 -1 -37 3 -37 8 0 6 17 9 39 7 39 -4 40 -3 30 22
-6 18 -6 26 1 26 27 0 -26 33 -61 37 -33 5 -37 8 -25 17 21 15 118 14 138 -2z"/>
<path d="M764 1368 c-4 -6 -2 -14 4 -16 7 -2 12 -15 12 -29 0 -21 -2 -24 -15
-13 -11 9 -15 9 -15 1 0 -19 31 -25 53 -12 17 11 19 11 14 -3 -7 -17 8 -22 18
-6 3 6 12 10 18 10 7 0 6 -4 -3 -10 -16 -10 -11 -13 40 -23 14 -3 36 -8 50
-12 l25 -6 -25 16 -25 16 34 -7 c23 -4 31 -3 27 5 -4 6 -12 9 -17 6 -5 -4 -9
-1 -9 4 0 17 37 13 44 -4 3 -8 1 -15 -4 -15 -16 0 -11 -19 10 -40 22 -22 35
-27 24 -8 -12 19 -13 58 -1 58 19 0 -27 29 -46 30 -10 0 -15 5 -12 10 3 6 -1
10 -9 10 -9 0 -16 4 -16 9 0 5 -8 8 -17 6 -10 -1 -22 1 -28 5 -12 10 -14 10
-61 10 -25 0 -33 3 -28 13 5 7 0 6 -11 -3 -11 -9 -16 -10 -11 -2 4 6 3 12 -3
12 -5 0 -13 -5 -17 -12z"/>
<path d="M1417 1223 c5 -15 3 -16 -8 -5 -19 17 -36 15 -42 -7 -3 -12 6 -28 24
-46 l29 -27 0 27 c0 15 4 24 10 20 6 -3 10 -15 10 -26 0 -11 4 -18 10 -14 6 4
6 15 0 30 -5 14 -6 25 -1 25 11 0 24 -48 16 -60 -4 -6 -13 -10 -21 -10 -8 0
-14 -8 -14 -17 0 -14 2 -15 9 -4 5 7 14 10 20 7 6 -4 11 0 11 8 0 18 16 21 25
6 3 -6 17 -8 31 -6 13 3 24 0 24 -5 0 -5 7 -9 16 -9 14 0 14 -3 4 -15 -9 -10
-9 -15 -1 -15 6 0 11 4 11 8 0 5 7 17 16 28 13 16 15 16 10 2 -3 -10 -1 -18 3
-18 5 0 12 8 16 18 6 15 8 15 15 -5 11 -28 50 -27 50 2 1 20 1 20 15 1 13 -17
15 -17 15 -4 0 22 -19 33 -32 20 -8 -8 -15 -7 -24 3 -16 16 -19 29 -4 20 6 -3
10 -1 10 4 0 6 -6 12 -12 12 -7 1 -20 2 -28 3 -8 0 -25 -10 -37 -23 l-22 -23
-12 26 c-7 14 -17 26 -23 26 -6 0 -6 4 2 12 8 8 15 8 27 -2 11 -9 15 -10 15 0
0 6 -9 14 -20 17 -11 3 -20 10 -20 15 0 5 -4 7 -8 4 -12 -7 -8 -42 8 -60 25
-31 3 -27 -31 5 -19 18 -26 30 -16 26 11 -4 17 -1 17 9 0 12 -6 15 -23 10 -14
-3 -32 1 -43 9 -26 19 -35 19 -27 -2z"/>
<path d="M3695 1140 c3 -5 1 -10 -4 -10 -6 0 -11 -7 -11 -15 0 -18 -16 -20
-23 -2 -4 9 -6 9 -6 -1 -1 -7 -5 -11 -11 -7 -5 3 -6 13 -3 22 5 13 3 13 -14
-3 -11 -10 -18 -22 -16 -26 2 -5 -1 -8 -6 -8 -19 0 -12 -17 9 -23 11 -3 20
-12 20 -21 0 -9 9 -25 20 -36 18 -18 20 -18 20 -2 0 9 -4 23 -9 31 -5 8 -7 20
-4 28 4 11 8 9 17 -7 6 -12 25 -29 41 -38 17 -10 33 -21 37 -27 4 -6 8 -2 8 8
0 25 23 21 48 -8 12 -14 27 -25 33 -25 6 0 -3 14 -20 31 -31 30 -45 63 -18 40
8 -6 17 -8 21 -4 4 4 9 -3 13 -15 3 -13 13 -22 24 -22 22 0 22 0 9 34 -5 14
-16 26 -25 26 -8 0 -15 9 -15 20 0 11 -4 20 -10 20 -5 0 -10 -9 -10 -20 0 -11
-4 -20 -9 -20 -20 0 -79 30 -92 47 -13 16 -12 17 4 4 21 -17 24 3 3 25 -17 16
-30 19 -21 4z"/>
<path d="M340 950 c0 -6 11 -15 25 -20 14 -5 44 -18 68 -29 173 -77 558 -203
575 -187 2 3 -1 7 -9 10 -8 2 -45 15 -84 29 -38 14 -101 35 -140 47 -114 37
-159 53 -170 60 -5 4 -28 11 -49 14 -25 5 -35 10 -27 15 9 6 8 10 -6 16 -35
14 -78 26 -113 31 -19 2 -39 9 -44 14 -13 13 -26 13 -26 0z"/>
<path d="M383 661 c-13 -20 -8 -29 27 -45 68 -32 85 -44 68 -51 -13 -5 -16
-14 -12 -31 4 -16 2 -24 -7 -24 -10 -1 -9 -5 4 -14 9 -7 17 -18 17 -25 0 -6 5
-11 10 -11 6 0 8 10 5 23 -8 30 11 77 30 77 10 0 13 -5 8 -12 -12 -20 -3 -66
19 -104 20 -35 35 -46 24 -19 -3 8 -1 15 4 15 6 0 10 5 10 11 0 15 -26 39 -34
31 -4 -3 -4 1 -1 10 4 9 2 19 -4 23 -17 10 -13 26 7 23 9 -2 19 -6 22 -10 3
-4 12 -3 19 1 10 7 8 10 -8 16 -14 4 -20 12 -17 21 3 7 1 16 -4 19 -4 3 -10 0
-12 -7 -3 -8 -15 -3 -33 15 -17 15 -32 22 -35 16 -4 -6 -12 -4 -20 6 -7 8 -18
15 -26 15 -7 0 -14 10 -16 22 -4 29 -30 34 -45 9z"/>
<path d="M1010 516 c0 -14 4 -26 10 -26 5 0 7 -7 3 -16 -3 -9 -6 -28 -7 -42
-1 -29 -26 -43 -27 -15 0 10 -6 0 -13 -22 -6 -22 -11 -59 -11 -82 1 -37 -2
-44 -26 -55 -18 -8 -25 -17 -21 -27 4 -13 2 -14 -9 -4 -17 17 -29 16 -29 -1 0
-24 29 -26 45 -3 20 29 20 2 -1 -38 -14 -28 -14 -30 8 -47 13 -10 27 -18 31
-18 5 0 5 -5 1 -12 -4 -7 -3 -8 4 -4 7 4 12 2 12 -3 0 -6 -5 -11 -11 -11 -15
0 -5 -83 11 -88 9 -3 11 1 7 12 -4 9 0 28 9 42 9 13 12 24 7 24 -6 0 -14 15
-19 33 -7 21 -17 33 -31 35 -15 2 -19 8 -16 22 3 10 11 16 18 14 8 -3 22 7 32
22 13 20 14 29 5 32 -19 6 -14 21 6 18 13 -3 17 3 18 25 1 16 -3 29 -8 29 -5
0 -6 -4 -3 -10 3 -5 2 -10 -3 -10 -5 0 -12 19 -16 42 -6 36 -4 44 18 62 13 12
27 37 30 58 11 60 50 60 75 0 12 -28 57 -52 98 -52 23 0 33 -18 33 -58 0 -29
30 -46 130 -73 25 -7 49 -16 54 -21 6 -4 18 -8 28 -8 9 0 28 -5 42 -12 19 -8
23 -14 16 -23 -8 -9 -6 -14 4 -18 10 -4 13 -1 10 7 -6 16 15 33 25 20 3 -5 13
-10 21 -11 8 -1 37 -7 65 -13 27 -6 56 -8 63 -5 18 7 5 26 -15 23 -9 -2 -18 3
-21 11 -3 10 0 12 12 8 9 -4 16 -3 16 2 0 5 -12 12 -27 16 -27 6 -28 7 -8 22
11 8 19 19 17 24 -1 5 3 9 9 9 6 0 8 -9 4 -20 -5 -17 -2 -20 25 -20 17 0 33
-6 36 -14 3 -8 12 -12 19 -9 8 2 20 1 27 -3 9 -6 6 -10 -12 -15 l-25 -7 26 -1
c14 -1 29 2 33 7 13 13 106 8 106 -5 0 -8 15 -13 39 -13 31 0 41 -4 46 -21 4
-11 4 -23 1 -26 -3 -4 -6 -1 -6 5 0 8 -20 12 -55 12 -30 0 -55 5 -55 10 0 6 5
10 10 10 6 0 10 5 10 10 0 17 -26 11 -45 -10 -13 -14 -31 -20 -62 -20 -23 0
-43 -4 -43 -10 0 -5 13 -10 30 -10 16 0 44 -6 62 -14 47 -20 141 -46 165 -46
11 0 37 -7 57 -15 19 -8 58 -20 86 -26 39 -8 50 -15 50 -30 0 -10 5 -19 10
-19 6 0 10 10 10 23 0 16 3 18 9 8 5 -7 14 -10 20 -7 6 4 16 4 23 0 8 -5 6
-10 -8 -15 -13 -5 -5 -7 24 -7 39 1 42 3 42 28 0 24 -5 28 -42 36 -24 4 -48 8
-55 8 -7 1 -18 7 -24 13 -9 9 -7 11 9 6 12 -3 36 0 53 6 20 7 37 7 48 1 9 -5
12 -10 8 -10 -12 0 19 -30 31 -30 6 0 12 5 14 11 3 9 10 9 27 0 16 -9 26 -10
33 -3 13 13 33 -4 42 -38 5 -17 4 -20 -2 -12 -6 9 -21 11 -48 7 -26 -4 -34 -3
-25 3 16 11 6 32 -15 32 -9 0 -14 -10 -14 -29 l0 -28 110 -1 c103 -1 110 0
110 18 0 13 -7 20 -19 20 -10 0 -21 7 -25 15 -4 10 1 15 15 15 11 0 22 -7 25
-15 4 -8 15 -15 25 -15 13 0 19 -7 19 -21 0 -11 5 -17 10 -14 6 4 9 13 8 20
-2 8 0 14 5 14 21 2 25 0 23 -15 -1 -11 8 -17 27 -19 32 -4 36 12 5 24 -12 4
-17 10 -12 14 14 8 94 -4 94 -14 0 -5 7 -9 15 -9 8 0 15 5 15 10 0 16 46 12
61 -6 11 -14 9 -15 -23 -9 -21 4 -38 3 -42 -4 -4 -6 29 -10 100 -10 58 0 103
3 100 6 -3 4 -1 12 5 19 8 10 16 10 35 2 18 -8 21 -14 12 -20 -7 -4 18 -7 57
-6 63 2 64 2 18 5 -29 2 -53 9 -53 14 0 6 23 9 55 7 36 -2 55 -7 55 -15 0 -7
7 -13 15 -13 9 0 12 6 9 15 -5 12 3 15 37 15 24 0 51 -5 59 -10 11 -7 1 -10
-34 -10 -27 0 -47 -3 -43 -6 3 -3 54 -2 114 2 105 8 106 9 48 15 l-60 6 69 1
c57 2 67 0 62 -13 -4 -12 3 -15 34 -15 22 0 40 5 40 11 0 5 -4 7 -10 4 -5 -3
-18 -1 -27 4 -20 11 -19 12 19 15 15 1 25 0 23 -3 -8 -7 29 -30 48 -31 15 0
16 3 7 20 -7 12 -7 20 -1 20 5 0 13 -9 16 -20 4 -11 15 -20 26 -20 11 0 18 4
14 9 -3 5 -1 12 5 16 5 3 10 -1 10 -9 0 -13 16 -16 101 -16 55 0 109 5 119 10
13 7 21 7 25 0 9 -14 52 -12 58 3 4 9 6 9 6 0 2 -30 71 4 71 34 0 7 5 13 10
13 6 0 10 -12 10 -26 0 -22 2 -25 15 -14 8 7 15 19 15 26 0 8 4 14 9 14 15 0
23 -18 11 -25 -13 -8 -13 -35 1 -35 5 0 7 5 3 11 -3 6 0 15 7 20 21 13 27 11
25 -8 0 -10 7 -19 18 -21 15 -3 17 0 12 14 -4 10 -1 21 6 26 10 7 9 11 -4 21
-13 10 -15 21 -9 43 l7 29 17 -26 c9 -14 18 -39 20 -55 5 -45 15 -54 55 -53
20 0 30 3 22 6 -33 14 -59 49 -62 88 -2 34 1 42 20 50 12 5 20 15 18 22 -3 7
3 17 13 22 15 9 17 6 16 -20 -1 -16 2 -32 6 -34 8 -6 0 -45 -10 -45 -4 0 -12
5 -18 11 -8 8 -13 7 -19 -2 -4 -7 -3 -14 4 -17 7 -2 12 -10 12 -18 0 -8 4 -14
10 -14 5 0 7 -6 4 -13 -6 -16 68 -35 139 -36 36 -1 47 2 47 14 0 17 16 20 24
6 4 -5 0 -11 -6 -14 -7 -2 2 -4 21 -5 l34 -1 -29 30 c-15 16 -23 29 -16 29 6
0 16 -9 22 -20 13 -24 45 -26 54 -3 6 15 8 15 22 2 21 -21 74 -13 74 12 0 10
-8 23 -17 28 -16 9 -16 10 -2 11 14 0 17 10 16 54 -1 40 -4 52 -13 46 -6 -6
-14 -7 -17 -3 -13 12 -7 23 13 23 16 0 20 7 20 30 0 17 -4 30 -10 30 -5 0 -10
-4 -10 -9 0 -5 -15 -10 -32 -10 -67 -2 -79 -5 -74 -18 9 -21 -10 -15 -27 9
-13 20 -18 21 -36 11 -15 -10 -22 -10 -27 -1 -4 7 -2 14 4 16 7 2 12 8 12 14
0 6 -9 3 -20 -7 -18 -16 -18 -19 -3 -41 9 -15 11 -24 4 -24 -6 0 -11 -5 -11
-11 0 -5 4 -8 9 -5 5 3 12 -2 15 -11 5 -12 9 -14 18 -5 21 21 32 13 13 -8 -13
-15 -21 -17 -26 -9 -10 16 -89 24 -89 9 0 -6 4 -20 10 -30 8 -15 6 -17 -10
-13 -17 4 -19 2 -13 -13 6 -18 6 -18 -10 -2 -20 20 -22 48 -4 48 15 0 11 56
-4 66 -15 9 -10 24 9 24 14 0 15 -2 2 -10 -13 -8 -12 -10 3 -10 10 0 20 -7 23
-15 4 -8 16 -15 28 -14 20 0 20 1 1 9 -11 5 -16 9 -11 9 5 1 2 9 -5 18 -12 15
-12 16 4 10 19 -7 23 3 6 20 -7 7 -21 8 -41 2 -17 -4 -35 -6 -39 -3 -5 3 -9
-5 -9 -18 0 -14 -3 -18 -8 -11 -10 16 -62 28 -62 14 0 -6 9 -11 19 -11 11 0
22 -4 25 -9 9 -14 -20 -21 -33 -8 -8 8 -14 8 -23 -1 -9 -9 -9 -12 0 -12 7 0
12 -5 12 -11 0 -8 -5 -8 -15 1 -8 7 -12 16 -9 21 13 22 -9 29 -28 9 -19 -20
-20 -20 -33 -3 -13 17 -14 17 -20 1 -4 -10 -11 -18 -17 -18 -5 0 -7 4 -3 9 3
5 1 12 -5 16 -5 3 -10 2 -10 -3 0 -6 -13 -15 -30 -20 -25 -9 -30 -8 -35 9 -8
25 -17 24 -33 -2 -7 -11 -19 -18 -27 -15 -8 3 -18 -2 -23 -11 -7 -12 -13 -13
-30 -4 -16 8 -21 7 -26 -4 -3 -8 -12 -15 -21 -15 -8 0 -15 -7 -15 -15 0 -8 -4
-15 -10 -15 -5 0 -10 5 -10 10 0 6 -4 10 -10 10 -5 0 -10 -9 -10 -20 0 -11 -4
-20 -9 -20 -5 0 -7 8 -4 19 3 10 0 22 -6 25 -6 4 -11 0 -11 -9 0 -9 -4 -14 -9
-11 -4 3 -23 1 -40 -4 -21 -6 -42 -5 -59 1 -22 8 -29 7 -42 -9 -9 -10 -21 -17
-29 -14 -7 2 -17 -2 -22 -9 -5 -8 -9 -9 -9 -4 0 13 -56 19 -73 8 -7 -5 2 -10
23 -14 22 -5 3 -7 -52 -7 -48 1 -93 -3 -100 -9 -18 -13 -241 -8 -246 6 -5 14
-32 14 -32 0 0 -8 -54 -10 -180 -7 -99 1 -180 0 -180 -4 0 -5 -24 -7 -52 -6
-45 1 -47 2 -15 5 38 4 38 5 21 24 -9 10 -24 19 -33 19 -14 0 -14 -2 -1 -10
12 -8 10 -10 -10 -10 -44 0 -100 12 -94 21 8 13 -42 22 -101 17 -30 -3 -52 -1
-49 4 3 4 -6 8 -20 8 -15 0 -25 -5 -23 -12 1 -6 -7 -13 -18 -15 -11 -1 -14 0
-7 3 34 16 -53 43 -225 71 -18 3 -33 9 -33 13 0 4 -26 10 -57 13 -32 3 -76 13
-98 23 -22 10 -46 17 -52 15 -7 -1 -13 3 -13 8 0 5 -13 9 -28 9 -32 -1 -165
23 -172 32 -3 3 -18 12 -35 20 -16 8 -34 20 -40 26 -8 10 -36 18 -100 30 -5 1
-12 3 -15 4 -3 1 -16 3 -30 6 -14 2 -47 11 -75 20 -70 24 -256 75 -280 78 -11
1 -29 7 -40 13 -14 8 -26 8 -39 1 -12 -7 -17 -7 -12 0 3 5 -1 15 -9 22 -13 11
-15 8 -15 -14z"/>
<path d="M600 251 c-14 -26 -13 -41 3 -36 8 4 12 -7 11 -36 -1 -31 -7 -47 -25
-61 -24 -18 -24 -19 -5 -33 11 -8 23 -15 28 -15 4 0 8 -7 8 -15 0 -8 -4 -15
-10 -15 -5 0 -10 8 -10 17 0 14 -2 15 -12 4 -11 -10 -10 -14 5 -22 9 -6 17
-17 17 -24 0 -21 30 -18 32 3 0 9 2 23 2 31 1 8 11 15 23 16 16 1 25 -6 32
-27 6 -15 14 -29 18 -29 38 -6 63 -3 63 8 0 7 -6 10 -14 7 -8 -3 -17 0 -21 5
-3 6 -11 9 -16 6 -5 -3 -6 1 -3 9 3 9 1 16 -5 16 -16 0 -13 50 4 80 l14 25 1
-26 c0 -14 -5 -30 -11 -36 -8 -8 -7 -13 1 -18 7 -4 16 -1 21 6 8 12 11 12 18
-1 6 -8 13 -12 16 -9 10 10 -6 39 -22 39 -7 0 -13 6 -11 12 3 18 -12 58 -22
58 -5 0 -17 3 -27 7 -17 6 -17 6 0 -14 15 -17 16 -25 6 -49 -7 -16 -13 -32
-13 -36 -1 -4 -6 -12 -13 -19 -11 -11 -20 -7 -82 28 -2 1 5 10 16 20 16 15 19
27 16 65 -3 29 -9 45 -15 42 -6 -4 -8 2 -3 15 8 26 -1 27 -15 2z"/>
</g>
</svg>
